<mxfile host="app.diagrams.net" modified="2022-12-31T04:05:30.399Z" agent="5.0 (Windows)" version="20.7.4" etag="FcsUJrrDQY1fBj54hOVT" type="github">
  <diagram id="mt03Di0zvmVKPtWWQJcN" name="Page-1">
    <mxGraphModel dx="1434" dy="754" grid="1" gridSize="10" guides="1" tooltips="1" connect="1" arrows="1" fold="1" page="1" pageScale="1" pageWidth="850" pageHeight="1100" math="0" shadow="0">
      <root>
        <mxCell id="0" />
        <mxCell id="1" parent="0" />
        <mxCell id="1vS02GqaQMTFARj9qhRf-1" value="Actor" style="shape=umlActor;verticalLabelPosition=bottom;verticalAlign=top;html=1;outlineConnect=0;" vertex="1" parent="1">
          <mxGeometry x="120" y="140" width="120" height="150" as="geometry" />
        </mxCell>
      </root>
    </mxGraphModel>
  </diagram>
</mxfile>
